<?xml version="1.0" standalone="no"?>
<!DOCTYPE svg PUBLIC "-//W3C//DTD SVG 20010904//EN"
 "http://www.w3.org/TR/2001/REC-SVG-20010904/DTD/svg10.dtd">
<svg version="1.0" xmlns="http://www.w3.org/2000/svg"
 width="559.000000pt" height="559.000000pt" viewBox="0 0 559.000000 559.000000"
 preserveAspectRatio="xMidYMid meet">
<metadata>
Created by potrace 1.11, written by Peter Selinger 2001-2013
</metadata>
<g transform="translate(0.000000,559.000000) scale(0.100000,-0.100000)"
fill="#000000" stroke="none">
<path d="M2707 5504 c-1 -1 -46 -4 -99 -8 -116 -7 -261 -26 -313 -40 -5 -1
-26 -6 -45 -10 -19 -4 -66 -17 -105 -29 -38 -11 -74 -21 -80 -23 -45 -10 -238
-100 -285 -134 -15 -11 -31 -20 -35 -20 -17 0 -178 -135 -239 -201 -157 -170
-280 -412 -331 -654 -3 -11 -7 -31 -10 -45 -14 -66 -23 -120 -30 -190 -27
-250 -28 -2646 -1 -2800 3 -14 7 -47 11 -75 30 -258 124 -530 247 -715 53 -81
184 -214 263 -267 85 -57 224 -125 285 -138 3 -1 25 -7 50 -14 25 -7 54 -15
65 -17 11 -2 31 -6 45 -9 55 -12 77 -15 130 -21 60 -5 317 -6 365 0 17 2 59 7
95 10 36 4 72 9 80 11 8 2 35 7 60 10 89 12 187 38 274 72 80 32 152 67 389
191 42 22 77 38 77 35 0 -3 7 1 17 8 15 13 15 11 8 -26 -17 -92 -17 -95 2 -96
24 -1 67 -7 128 -19 28 -5 66 -12 85 -15 29 -5 163 -28 285 -49 17 -3 46 -8
65 -11 19 -3 85 -15 145 -25 61 -10 124 -21 141 -23 l31 -5 -1 1427 -1 1426
-888 3 -887 2 5 -92 c3 -51 7 -156 10 -233 7 -194 14 -317 18 -321 4 -4 54
-12 127 -19 36 -3 85 -9 110 -12 64 -7 86 -10 170 -17 41 -4 88 -9 103 -12 15
-3 44 -7 65 -9 20 -1 71 -6 112 -10 41 -4 80 -8 87 -8 6 0 10 -5 8 -11 -2 -6
-6 -117 -10 -246 -12 -490 -36 -675 -107 -815 -68 -136 -164 -226 -293 -274
-70 -27 -75 -28 -180 -46 -89 -15 -289 -13 -371 4 -167 33 -290 115 -358 237
-32 57 -71 186 -80 264 -7 64 -9 2458 -1 2660 2 74 6 144 8 155 3 11 8 40 13
65 4 25 8 47 9 50 14 59 23 84 52 142 97 191 294 280 618 281 317 1 495 -80
603 -274 28 -51 67 -180 82 -269 16 -105 18 -117 25 -185 4 -33 8 -71 10 -85
2 -14 7 -45 10 -70 3 -25 8 -54 10 -65 2 -11 4 -23 4 -26 1 -3 207 -6 459 -5
l457 1 0 175 c0 159 -7 291 -19 346 -2 12 -7 38 -10 58 -33 204 -149 484 -251
603 -5 7 -30 36 -55 65 -135 162 -351 299 -590 377 -103 33 -243 65 -329 76
-30 4 -63 9 -75 11 -50 9 -429 25 -439 18z"/>
</g>
</svg>
